# Blender 4.3.0
# www.blender.org
mtllib ship_grav_field.mtl
o Cube.002
v 2.371726 2.358938 5.434047
v 0.333958 5.092350 3.396279
v 2.371726 2.358938 -5.434047
v 0.333958 5.092350 -3.396279
v 15.608887 2.358938 5.434047
v 24.527134 4.617604 3.396279
v 24.527134 4.617604 -3.396279
v 2.371726 3.725644 5.434047
v 2.371726 3.725644 -5.434047
v 25.022438 3.250898 -3.396279
v 15.864684 3.725644 -5.434047
v 15.864684 3.725644 5.434047
v -1.391796 -0.443871 -1.132093
v -1.391796 -0.443871 1.132093
v 2.371726 6.593218 1.132093
v 2.371726 6.593218 -1.132093
v 14.998098 -0.679256 -1.132093
v 26.007088 1.884193 -1.132093
v 16.011312 6.593218 -1.132093
v 16.011312 6.593218 1.132093
v 26.502392 3.250898 -1.132093
v -1.146069 3.651446 1.132093
v -1.146069 3.651446 -1.132093
v -0.509085 2.782782 -3.396279
v -0.509085 2.782782 3.396279
v -0.197190 -0.679256 -3.396279
v -0.197190 -0.679256 3.396279
v -0.818363 -0.679256 -1.132093
v -0.818363 -0.679256 1.132093
v -0.730845 0.013554 -3.396279
v -0.730845 0.013554 3.396279
v -0.385876 -0.501685 3.249890
v 2.421383 2.405144 5.221719
v 2.436804 4.986807 5.237279
v 2.429178 6.391618 3.326805
v 0.484155 4.967121 3.298606
v -0.385876 -0.501685 -3.249890
v 2.421383 2.405144 -5.221720
v 2.429178 6.391618 -3.326805
v 2.436804 4.986807 -5.237279
v 0.484155 4.967121 -3.298606
v 14.974027 -0.476677 3.289665
v 24.419075 2.028678 3.241638
v 15.588652 2.422497 5.231372
v 15.990413 6.391206 3.327709
v 15.985738 4.990143 5.231272
v 24.418049 4.472919 3.241122
v 14.974027 -0.476677 -3.289665
v 15.588652 2.422497 -5.231373
v 24.419075 2.028678 -3.241638
v 15.990413 6.391206 -3.327709
v 24.418049 4.472919 -3.241122
v 15.985738 4.990143 -5.231272
v 2.449818 3.712619 5.232826
v -0.327471 3.609139 3.282035
v 2.449818 3.712619 -5.232826
v -0.327471 3.609139 -3.282035
v 24.879129 3.252346 -3.221509
v 15.838111 3.727457 -5.230577
v 15.838111 3.727457 5.230577
v 24.879129 3.252346 3.221509
v -1.231510 -0.289686 -1.090445
v -1.231510 -0.289686 1.090445
v 2.432542 6.390558 1.127429
v 2.432542 6.390558 -1.127429
v -0.146630 4.947811 -1.114681
v -0.146630 4.947811 1.114681
v 14.970410 -0.475822 1.127228
v 14.970410 -0.475822 -1.127228
v 25.839836 2.046988 -1.084609
v 25.839836 2.046988 1.084610
v 15.987590 6.389696 -1.127897
v 15.987590 6.389696 1.127897
v 25.840578 4.450576 1.084361
v 25.840578 4.450576 -1.084361
v 26.286837 3.250898 -1.070735
v 26.286837 3.250898 1.070735
v -0.944626 3.592475 1.098835
v -0.944626 3.592475 -1.098835
v -0.334056 2.783283 -3.268288
v -0.334056 2.783283 3.268288
v -0.197190 -0.475479 -3.287588
v -0.197190 -0.475479 3.287588
v -0.775693 -0.475915 -1.129139
v -0.775693 -0.475915 1.129139
v -0.563377 0.047400 -3.262467
v -0.563377 0.047400 3.262467
vn -0.9612 0.0770 0.2650
vn -0.9612 0.0770 -0.2650
vn -0.9551 0.0573 0.2907
vn -0.9982 0.0599 -0.0000
vn -0.9551 0.0573 -0.2907
vn 0.0003 -0.0020 1.0000
vn 0.7999 0.2927 0.5239
vn -0.0000 1.0000 -0.0006
vn 0.0003 -0.0020 -1.0000
vn -0.5131 0.6905 0.5098
vn -0.6271 0.1842 0.7568
vn -0.5131 0.6905 -0.5098
vn 0.1559 -0.5723 0.8051
vn 0.1861 0.7911 0.5827
vn 0.1559 -0.5723 -0.8051
vn 0.1861 0.7911 -0.5827
vn -0.5344 0.8421 -0.0726
vn 0.0001 -0.5565 -0.8309
vn -0.0000 0.8055 -0.5926
vn 0.2156 -0.0524 -0.9751
vn 0.2399 -0.9679 -0.0744
vn 0.2065 0.9765 0.0619
vn 0.2156 -0.0524 0.9751
vn -0.0012 -0.5567 0.8307
vn -0.0000 0.8055 0.5926
vn -0.5749 0.0056 -0.8182
vn -0.6271 0.1842 -0.7568
vn 0.2242 0.0203 0.9743
vn 0.2242 0.0203 -0.9743
vn -0.5510 0.0040 -0.8345
vn -0.0003 -0.0039 -1.0000
vn 0.8001 -0.2916 0.5242
vn -0.0003 -0.0039 1.0000
vn -0.8372 0.4938 0.2352
vn -0.8372 0.4938 -0.2352
vn -0.8617 0.5074 -0.0000
vn 0.8001 -0.2916 -0.5242
vn 0.9375 -0.3481 -0.0000
vn 0.0008 -1.0000 -0.0003
vn -0.0000 -1.0000 -0.0000
vn 0.2065 0.9765 -0.0619
vn 0.1931 0.9812 -0.0000
vn 0.2399 -0.9679 0.0744
vn 0.2261 -0.9741 -0.0000
vn -0.5344 0.8421 0.0726
vn -0.4882 0.8727 -0.0000
vn -0.0000 1.0000 0.0006
vn 0.0001 1.0000 -0.0000
vn 0.7999 0.2927 -0.5239
vn 0.9373 0.3486 -0.0000
vn -0.5791 -0.0090 -0.8152
vn -0.5749 0.0056 0.8182
vn -0.0012 -0.5567 -0.8307
vn 0.0001 -0.5565 0.8309
vn -0.5791 -0.0090 0.8152
vn 0.0008 -1.0000 0.0003
vn -0.9623 0.0031 0.2720
vn -0.9623 0.0031 -0.2720
vn -0.3782 -0.9257 -0.0000
vn -0.3818 -0.9223 -0.0590
vn -0.3818 -0.9223 0.0590
vn -0.5510 0.0040 0.8345
vn -0.8985 -0.2978 -0.3226
vn -0.8985 -0.2978 0.3226
vn 0.6933 -0.7207 -0.0000
vn 0.2810 0.9597 -0.0000
vn 0.2619 0.9247 -0.2762
vn 0.2619 0.9247 0.2762
vn 0.6097 -0.0508 -0.7910
vn 0.6097 -0.0508 0.7910
vn 0.4998 -0.8661 -0.0054
vn 0.4998 -0.8661 0.0054
vt 0.000000 0.000000
vt 0.500000 0.778757
vt 0.550181 0.778757
vt 0.550181 0.971243
vt 0.500000 0.971243
vt 0.500000 0.651042
vt 0.550181 0.651042
vt 0.550181 0.703125
vt 0.500000 0.703125
vt 0.653757 0.651042
vt 0.846242 0.651042
vt 0.846242 0.703125
vt 0.653757 0.703125
vt 0.500000 0.278757
vt 0.550181 0.278757
vt 0.550181 0.471243
vt 0.500000 0.471243
vt 0.550181 0.000000
vt 0.625000 0.046875
vt 0.550181 0.046875
vt 0.500000 0.000000
vt 0.351969 0.375000
vt 0.625000 0.203125
vt 0.550180 0.250000
vt 0.550181 0.203125
vt 0.346243 0.703125
vt 0.375000 0.703125
vt 0.346243 0.750000
vt 0.625000 0.778757
vt 0.550181 0.750000
vt 0.346243 0.546875
vt 0.346243 0.500000
vt 0.375000 0.546875
vt 0.625000 0.471243
vt 0.550180 0.500000
vt 0.625000 0.151042
vt 0.550181 0.151042
vt 0.153757 0.500000
vt 0.625000 0.278757
vt 0.500000 0.546875
vt 0.449820 0.546875
vt 0.449820 0.471243
vt 0.346242 0.598958
vt 0.449819 0.598958
vt 0.449819 0.778757
vt 0.449820 0.703125
vt 0.153757 0.750000
vt 0.153757 0.703125
vt 0.157590 0.703125
vt 0.625000 0.971243
vt 0.351969 0.389379
vt 0.550181 0.546875
vt 0.153757 0.546875
vt 0.203310 0.503906
vt 0.252863 0.460938
vt 0.449819 0.278757
vt 0.449820 0.651042
vt 0.449820 0.971243
vt 0.550181 0.098958
vt 0.500000 0.598958
vt 0.157590 0.651042
vt 0.346242 0.651042
vt 0.157590 0.598958
vt 0.653757 0.546875
vt 0.653757 0.598958
vt 0.550181 0.598958
vt 0.625000 0.098958
vt 0.846242 0.546875
vt 0.846242 0.598958
vt 0.449820 0.000000
vt 0.157590 0.546875
vt 0.252863 0.539062
vt 0.153757 0.598958
vt 0.153757 0.651042
vt 0.203310 0.621094
s 0
f 31/1/1 25/1/1 14/1/1
f 30/1/2 13/1/2 24/1/2
f 14/1/3 25/1/3 22/1/3
f 13/1/4 22/1/4 23/1/4
f 13/1/4 14/1/4 22/1/4
f 24/1/5 13/1/5 23/1/5
f 60/2/6 46/3/6 34/4/6 54/5/6
f 77/6/7 74/7/7 47/8/7 61/9/7
f 73/10/8 64/11/8 35/12/8 45/13/8
f 56/14/9 40/15/9 53/16/9 59/17/9
f 34/18/10 35/19/10 36/20/10
f 54/21/11 34/18/11 36/20/11 55/22/11
f 39/23/12 40/24/12 41/25/12
f 42/26/13 43/27/13 44/28/13
f 45/29/14 46/3/14 47/30/14
f 48/31/15 49/32/15 50/33/15
f 51/34/16 52/35/16 53/16/16
f 65/36/17 39/23/17 41/25/17 66/37/17
f 48/31/18 38/38/18 49/32/18
f 39/39/19 51/34/19 53/16/19 40/15/19
f 58/40/20 50/41/20 49/42/20 59/17/20
f 69/43/21 48/31/21 50/41/21 70/44/21
f 73/10/22 45/13/22 47/8/22 74/7/22
f 60/2/23 44/45/23 43/46/23 61/9/23
f 42/26/24 33/47/24 32/48/24 83/49/24
f 45/29/25 35/50/25 34/4/25 46/3/25
f 38/38/26 57/22/26 56/51/26
f 40/15/27 56/51/27 57/22/27 41/25/27
f 46/3/28 60/2/28 61/9/28 47/8/28
f 52/52/29 58/40/29 59/17/29 53/16/29
f 38/38/30 37/53/30 86/54/30 80/55/30
f 38/56/31 56/14/31 59/17/31 49/42/31
f 71/57/32 77/6/32 61/9/32 43/46/32
f 44/45/33 60/2/33 54/5/33 33/58/33
f 67/59/34 78/22/34 55/22/34 36/20/34
f 41/25/35 57/22/35 79/22/35 66/37/35
f 66/37/36 79/22/36 78/22/36 67/59/36
f 50/41/37 58/40/37 76/60/37 70/44/37
f 70/44/38 76/60/38 77/6/38 71/57/38
f 83/49/39 32/48/39 85/61/39 68/62/39 42/26/39
f 84/63/40 69/43/40 68/62/40 85/61/40
f 51/64/41 72/65/41 75/66/41 52/52/41
f 72/65/42 73/10/42 74/7/42 75/66/42
f 42/26/43 68/62/43 71/57/43 43/46/43
f 68/62/44 69/43/44 70/44/44 71/57/44
f 35/19/45 64/67/45 67/59/45 36/20/45
f 64/67/46 65/36/46 66/37/46 67/59/46
f 51/64/47 39/68/47 65/69/47 72/65/47
f 72/65/48 65/69/48 64/11/48 73/10/48
f 58/40/49 52/52/49 75/66/49 76/60/49
f 76/60/50 75/66/50 74/7/50 77/6/50
f 38/38/51 80/55/51 57/22/51
f 33/70/52 54/21/52 55/22/52
f 48/31/53 82/71/53 37/53/53 38/38/53
f 42/26/54 44/28/54 33/47/54
f 33/70/55 55/22/55 81/72/55
f 37/53/56 82/71/56 48/31/56 69/43/56 84/63/56
f 78/22/57 81/72/57 55/22/57
f 80/55/58 79/22/58 57/22/58
f 62/73/59 84/63/59 85/61/59 63/74/59
f 37/53/60 84/63/60 62/73/60
f 85/61/61 32/48/61 63/74/61
f 33/70/62 81/72/62 87/75/62 32/48/62
f 62/73/63 86/54/63 37/53/63
f 32/48/64 87/75/64 63/74/64
f 13/73/65 62/73/65 63/74/65 14/74/65
f 22/22/66 78/22/66 79/22/66 23/22/66
f 23/22/67 79/22/67 80/55/67 24/55/67
f 25/72/68 81/72/68 78/22/68 22/22/68
f 24/55/69 80/55/69 86/54/69 30/54/69
f 31/75/70 87/75/70 81/72/70 25/72/70
f 30/54/71 86/54/71 62/73/71 13/73/71
f 14/74/72 63/74/72 87/75/72 31/75/72
